<mxfile host="app.diagrams.net" modified="2023-12-15T12:46:07.948Z" agent="Mozilla/5.0 (Windows NT 6.1; Win64; x64) AppleWebKit/537.36 (KHTML, like Gecko) Chrome/118.0.5993.771 YaBrowser/23.11.2.771 Yowser/2.5 Safari/537.36" version="22.1.9" etag="Gv6BRvIdSIiubQOSYfan" type="github">
  <diagram name="Страница — 1" id="tv-0GuguA37QTUDXleLl">
    <mxGraphModel>
      <root>
        <mxCell id="0" />
        <mxCell id="1" parent="0" />
      </root>
    </mxGraphModel>
  </diagram>
</mxfile>
